<svg width="180" height="250" viewBox="0 0 180 250" fill="none" xmlns="http://www.w3.org/2000/svg">
<mask id="mask0" mask-type="alpha" maskUnits="userSpaceOnUse" x="0" y="0" width="180" height="250">
<rect x="0.463806" y="0.272949" width="179.232" height="249.689" fill="url(#paint0_linear)"/>
</mask>
<g mask="url(#mask0)">
<g filter="url(#filter0_d)">
<rect x="18.4701" y="7.34521" width="136.36" height="274.372" rx="13.5" stroke="white" stroke-width="3"/>
<rect x="18.4701" y="7.34521" width="136.36" height="274.372" rx="13.5" stroke="white" stroke-width="3"/>
<rect x="18.4701" y="7.34521" width="136.36" height="274.372" rx="13.5" stroke="white" stroke-width="3"/>
</g>
<rect x="27.2133" y="18.002" width="118.876" height="254.313" rx="9" stroke="white" stroke-width="2"/>
<rect x="27.2133" y="18.002" width="118.876" height="254.313" rx="9" stroke="white" stroke-width="2"/>
<rect x="27.2133" y="18.002" width="118.876" height="254.313" rx="9" stroke="white" stroke-width="2"/>
<rect x="84.2634" y="23.8696" width="4.77523" height="4.78916" rx="2.38762" fill="white"/>
<path d="M93.0029 125.882C93.6933 124.259 95.9931 124.259 96.6835 125.882L119.172 178.731C119.733 180.05 118.765 181.514 117.331 181.514H72.3551C70.9215 181.514 69.9535 180.05 70.5148 178.731L93.0029 125.882Z" fill="white"/>
<mask id="mask1" mask-type="alpha" maskUnits="userSpaceOnUse" x="33" y="87" width="73" height="123">
<path d="M58.8304 209.238L104.561 162.15" stroke="white" stroke-width="2"/>
<path d="M34.079 135.372L79.8091 88.2836" stroke="white" stroke-width="2"/>
<path d="M35.5809 139.361L81.3111 92.2724" stroke="white" stroke-width="2"/>
<path d="M37.0801 143.348L82.8102 96.2597" stroke="white" stroke-width="2"/>
<path d="M38.5809 147.336L84.3111 100.248" stroke="white" stroke-width="2"/>
<path d="M40.0813 151.325L85.8114 104.236" stroke="white" stroke-width="2"/>
<path d="M41.5819 155.312L87.312 108.224" stroke="white" stroke-width="2"/>
<path d="M43.084 159.301L88.8141 112.212" stroke="white" stroke-width="2"/>
<path d="M44.5844 163.288L90.3145 116.2" stroke="white" stroke-width="2"/>
<path d="M46.0867 167.276L91.8169 120.187" stroke="white" stroke-width="2"/>
<path d="M46.3154 172.267L92.0455 125.179" stroke="white" stroke-width="2"/>
<path d="M47.8129 176.255L93.543 129.167" stroke="white" stroke-width="2"/>
<path d="M49.3134 180.244L95.0435 133.156" stroke="white" stroke-width="2"/>
<path d="M50.8172 184.231L96.5474 137.143" stroke="white" stroke-width="2"/>
<path d="M52.3161 188.22L98.0463 141.131" stroke="white" stroke-width="2"/>
<path d="M53.8196 192.207L99.5497 145.119" stroke="white" stroke-width="2"/>
<path d="M55.3205 196.195L101.051 149.106" stroke="white" stroke-width="2"/>
<path d="M56.821 200.183L102.551 153.095" stroke="white" stroke-width="2"/>
<path d="M58.326 204.172L104.056 157.083" stroke="white" stroke-width="2"/>
</mask>
<g mask="url(#mask1)">
<rect x="38.9256" y="115.802" width="58.2098" height="58.5884" rx="29.1049" fill="white"/>
</g>
<rect x="69.5302" y="101.448" width="55.2098" height="55.5884" rx="3.5" stroke="white" stroke-width="3"/>
</g>
<defs>
<filter id="filter0_d" x="-3.02991" y="-14.1548" width="179.36" height="317.372" filterUnits="userSpaceOnUse" color-interpolation-filters="sRGB">
<feFlood flood-opacity="0" result="BackgroundImageFix"/>
<feColorMatrix in="SourceAlpha" type="matrix" values="0 0 0 0 0 0 0 0 0 0 0 0 0 0 0 0 0 0 127 0"/>
<feOffset/>
<feGaussianBlur stdDeviation="10"/>
<feColorMatrix type="matrix" values="0 0 0 0 1 0 0 0 0 1 0 0 0 0 1 0 0 0 0.5 0"/>
<feBlend mode="normal" in2="BackgroundImageFix" result="effect1_dropShadow"/>
<feBlend mode="normal" in="SourceGraphic" in2="effect1_dropShadow" result="shape"/>
</filter>
<linearGradient id="paint0_linear" x1="90.0798" y1="0.272949" x2="90.0798" y2="249.962" gradientUnits="userSpaceOnUse">
<stop offset="0.822917" stop-color="white"/>
<stop offset="1" stop-color="white" stop-opacity="0"/>
</linearGradient>
</defs>
</svg>
