<svg width="233" height="252" viewBox="0 0 233 252" fill="none" xmlns="http://www.w3.org/2000/svg">
<mask id="mask0" mask-type="alpha" maskUnits="userSpaceOnUse" x="0" y="0" width="233" height="252">
<rect x="0.518311" y="0.203613" width="231.834" height="251.609" fill="url(#paint0_linear)"/>
</mask>
<g mask="url(#mask0)">
<g filter="url(#filter0_d)">
<path d="M157.938 208.688H185.643C186.323 208.688 186.918 209.145 187.093 209.803L189.239 217.902C191.021 224.625 193.831 231.031 197.569 236.895L200.123 240.9C200.759 241.899 200.042 243.207 198.858 243.207H143.929C142.694 243.207 141.988 241.798 142.727 240.809L143.757 239.431C149.339 231.963 153.314 223.42 155.431 214.339L156.478 209.847C156.636 209.168 157.241 208.688 157.938 208.688Z" stroke="white" stroke-width="5"/>
<path d="M157.938 208.688H185.643C186.323 208.688 186.918 209.145 187.093 209.803L189.239 217.902C191.021 224.625 193.831 231.031 197.569 236.895L200.123 240.9C200.759 241.899 200.042 243.207 198.858 243.207H143.929C142.694 243.207 141.988 241.798 142.727 240.809L143.757 239.431C149.339 231.963 153.314 223.42 155.431 214.339L156.478 209.847C156.636 209.168 157.241 208.688 157.938 208.688Z" stroke="white" stroke-width="5"/>
<path d="M157.938 208.688H185.643C186.323 208.688 186.918 209.145 187.093 209.803L189.239 217.902C191.021 224.625 193.831 231.031 197.569 236.895L200.123 240.9C200.759 241.899 200.042 243.207 198.858 243.207H143.929C142.694 243.207 141.988 241.798 142.727 240.809L143.757 239.431C149.339 231.963 153.314 223.42 155.431 214.339L156.478 209.847C156.636 209.168 157.241 208.688 157.938 208.688Z" stroke="white" stroke-width="5"/>
</g>
<g filter="url(#filter1_d)">
<rect x="14.0401" y="7.87646" width="315.754" height="189.109" rx="22.5" stroke="white" stroke-width="5"/>
<rect x="14.0401" y="7.87646" width="315.754" height="189.109" rx="22.5" stroke="white" stroke-width="5"/>
<rect x="14.0401" y="7.87646" width="315.754" height="189.109" rx="22.5" stroke="white" stroke-width="5"/>
</g>
<rect x="26.492" y="20.5918" width="290.85" height="163.679" rx="9.5" stroke="white" stroke-width="3"/>
<rect x="26.492" y="20.5918" width="290.85" height="163.679" rx="9.5" stroke="white" stroke-width="3"/>
<rect x="26.492" y="20.5918" width="290.85" height="163.679" rx="9.5" stroke="white" stroke-width="3"/>
<mask id="mask1" mask-type="alpha" maskUnits="userSpaceOnUse" x="72" y="53" width="135" height="124">
<path d="M72.1849 53.8901H133.714V160.168H206.78V176.249H72.1849V53.8901Z" fill="url(#paint1_radial)"/>
</mask>
<g mask="url(#mask1)">
<g opacity="0.15">
<rect x="78.5574" y="65.0718" width="116.391" height="107.239" rx="7" stroke="white" stroke-width="2"/>
<rect x="78.5574" y="65.0718" width="116.391" height="107.239" rx="7" stroke="white" stroke-width="2"/>
<rect x="78.5574" y="65.0718" width="116.391" height="107.239" rx="7" stroke="white" stroke-width="2"/>
<path d="M85.5574 65.0718H187.949C191.815 65.0718 194.949 68.2058 194.949 72.0718V77.5707H78.5574V72.0718C78.5574 68.2058 81.6914 65.0718 85.5574 65.0718Z" stroke="white" stroke-width="2"/>
<path d="M85.5574 65.0718H187.949C191.815 65.0718 194.949 68.2058 194.949 72.0718V77.5707H78.5574V72.0718C78.5574 68.2058 81.6914 65.0718 85.5574 65.0718Z" stroke="white" stroke-width="2"/>
<path d="M85.5574 65.0718H187.949C191.815 65.0718 194.949 68.2058 194.949 72.0718V77.5707H78.5574V72.0718C78.5574 68.2058 81.6914 65.0718 85.5574 65.0718Z" stroke="white" stroke-width="2"/>
<path d="M78.5566 77.6416H107.609V172.311H85.5566C81.6907 172.311 78.5566 169.177 78.5566 165.311V77.6416Z" fill="url(#paint2_linear)" fill-opacity="0.8"/>
<path d="M78.5566 77.6416H107.609V172.311H85.5566C81.6907 172.311 78.5566 169.177 78.5566 165.311V77.6416Z" stroke="white" stroke-width="2"/>
<path d="M78.5566 77.6416H107.609V172.311H85.5566C81.6907 172.311 78.5566 169.177 78.5566 165.311V77.6416Z" stroke="white" stroke-width="2"/>
<path d="M78.5566 77.6416H107.609V172.311H85.5566C81.6907 172.311 78.5566 169.177 78.5566 165.311V77.6416Z" stroke="white" stroke-width="2"/>
<path d="M115.054 85.3286H123.772C126.258 85.3286 128.272 87.3433 128.272 89.8286V100.275H115.054V85.3286Z" stroke="white"/>
<path d="M115.054 85.3286H123.772C126.258 85.3286 128.272 87.3433 128.272 89.8286V100.275H115.054V85.3286Z" stroke="white"/>
<path d="M115.054 85.3286H123.772C126.258 85.3286 128.272 87.3433 128.272 89.8286V100.275H115.054V85.3286Z" stroke="white"/>
<path d="M135.217 85.3286H143.936C146.422 85.3286 148.436 87.3433 148.436 89.8286V100.275H135.217V85.3286Z" stroke="white"/>
<path d="M135.217 85.3286H143.936C146.422 85.3286 148.436 87.3433 148.436 89.8286V100.275H135.217V85.3286Z" stroke="white"/>
<path d="M135.217 85.3286H143.936C146.422 85.3286 148.436 87.3433 148.436 89.8286V100.275H135.217V85.3286Z" stroke="white"/>
<path d="M155.381 85.3286H164.1C166.585 85.3286 168.6 87.3433 168.6 89.8286V100.275H155.381V85.3286Z" stroke="white"/>
<path d="M155.381 85.3286H164.1C166.585 85.3286 168.6 87.3433 168.6 89.8286V100.275H155.381V85.3286Z" stroke="white"/>
<path d="M155.381 85.3286H164.1C166.585 85.3286 168.6 87.3433 168.6 89.8286V100.275H155.381V85.3286Z" stroke="white"/>
<path d="M188.7 69.2344L184.694 73.4077" stroke="white" stroke-linecap="round" stroke-linejoin="round"/>
<path d="M184.694 69.2344L188.7 73.4077" stroke="white" stroke-linecap="round" stroke-linejoin="round"/>
</g>
</g>
<g opacity="0.25">
<path d="M36.5494 32.1118H45.2683C47.7536 32.1118 49.7683 34.1265 49.7683 36.6118V47.0587H36.5494V32.1118Z" stroke="white"/>
<path d="M36.5494 32.1118H45.2683C47.7536 32.1118 49.7683 34.1265 49.7683 36.6118V47.0587H36.5494V32.1118Z" stroke="white"/>
<path d="M36.5494 32.1118H45.2683C47.7536 32.1118 49.7683 34.1265 49.7683 36.6118V47.0587H36.5494V32.1118Z" stroke="white"/>
<path d="M58.0802 32.1118H66.7991C69.2844 32.1118 71.2991 34.1265 71.2991 36.6118V47.0587H58.0802V32.1118Z" stroke="white"/>
<path d="M58.0802 32.1118H66.7991C69.2844 32.1118 71.2991 34.1265 71.2991 36.6118V47.0587H58.0802V32.1118Z" stroke="white"/>
<path d="M58.0802 32.1118H66.7991C69.2844 32.1118 71.2991 34.1265 71.2991 36.6118V47.0587H58.0802V32.1118Z" stroke="white"/>
<path d="M36.5483 54.6685H45.2672C47.7525 54.6685 49.7672 56.6832 49.7672 59.1685V69.6153H36.5483V54.6685Z" stroke="white"/>
<path d="M36.5483 54.6685H45.2672C47.7525 54.6685 49.7672 56.6832 49.7672 59.1685V69.6153H36.5483V54.6685Z" stroke="white"/>
<path d="M36.5483 54.6685H45.2672C47.7525 54.6685 49.7672 56.6832 49.7672 59.1685V69.6153H36.5483V54.6685Z" stroke="white"/>
<path d="M36.5483 77.2256H45.2672C47.7525 77.2256 49.7672 79.2403 49.7672 81.7256V92.1725H36.5483V77.2256Z" stroke="white"/>
<path d="M36.5483 77.2256H45.2672C47.7525 77.2256 49.7672 79.2403 49.7672 81.7256V92.1725H36.5483V77.2256Z" stroke="white"/>
<path d="M36.5483 77.2256H45.2672C47.7525 77.2256 49.7672 79.2403 49.7672 81.7256V92.1725H36.5483V77.2256Z" stroke="white"/>
<path d="M36.5483 99.7822H45.2672C47.7525 99.7822 49.7672 101.797 49.7672 104.282V114.729H36.5483V99.7822Z" stroke="white"/>
<path d="M36.5483 99.7822H45.2672C47.7525 99.7822 49.7672 101.797 49.7672 104.282V114.729H36.5483V99.7822Z" stroke="white"/>
<path d="M36.5483 99.7822H45.2672C47.7525 99.7822 49.7672 101.797 49.7672 104.282V114.729H36.5483V99.7822Z" stroke="white"/>
</g>
<rect x="136.943" y="48.5581" width="68.2082" height="107.746" rx="7" fill="white" fill-opacity="0.3"/>
<rect x="136.943" y="48.5581" width="68.2082" height="107.746" rx="7" stroke="white" stroke-width="2"/>
<rect x="136.943" y="48.5581" width="68.2082" height="107.746" rx="7" stroke="white" stroke-width="2"/>
<rect x="136.943" y="48.5581" width="68.2082" height="107.746" rx="7" stroke="white" stroke-width="2"/>
<rect x="147.857" y="114.655" width="46.3787" height="6.19657" rx="2" stroke="white" stroke-width="2" stroke-linecap="round" stroke-linejoin="round"/>
<rect x="147.857" y="100.985" width="46.3787" height="6.19657" rx="2" stroke="white" stroke-width="2" stroke-linecap="round" stroke-linejoin="round"/>
<circle cx="171.048" cy="77.5415" r="13.4551" stroke="white" stroke-width="2"/>
<line x1="167.089" y1="70.1152" x2="167.089" y2="78.8484" stroke="white" stroke-width="2"/>
<line x1="174.837" y1="70.1152" x2="174.837" y2="78.8484" stroke="white" stroke-width="2"/>
<path d="M167.566 81.8379V81.8379C169.785 82.8133 172.311 82.8133 174.53 81.8379V81.8379" stroke="white" stroke-width="2" stroke-linecap="round" stroke-linejoin="round"/>
</g>
<defs>
<filter id="filter0_d" x="119.921" y="186.188" width="102.943" height="79.5192" filterUnits="userSpaceOnUse" color-interpolation-filters="sRGB">
<feFlood flood-opacity="0" result="BackgroundImageFix"/>
<feColorMatrix in="SourceAlpha" type="matrix" values="0 0 0 0 0 0 0 0 0 0 0 0 0 0 0 0 0 0 127 0"/>
<feOffset/>
<feGaussianBlur stdDeviation="10"/>
<feColorMatrix type="matrix" values="0 0 0 0 1 0 0 0 0 1 0 0 0 0 1 0 0 0 0.5 0"/>
<feBlend mode="normal" in2="BackgroundImageFix" result="effect1_dropShadow"/>
<feBlend mode="normal" in="SourceGraphic" in2="effect1_dropShadow" result="shape"/>
</filter>
<filter id="filter1_d" x="-8.4599" y="-14.6235" width="360.754" height="234.109" filterUnits="userSpaceOnUse" color-interpolation-filters="sRGB">
<feFlood flood-opacity="0" result="BackgroundImageFix"/>
<feColorMatrix in="SourceAlpha" type="matrix" values="0 0 0 0 0 0 0 0 0 0 0 0 0 0 0 0 0 0 127 0"/>
<feOffset/>
<feGaussianBlur stdDeviation="10"/>
<feColorMatrix type="matrix" values="0 0 0 0 1 0 0 0 0 1 0 0 0 0 1 0 0 0 0.5 0"/>
<feBlend mode="normal" in2="BackgroundImageFix" result="effect1_dropShadow"/>
<feBlend mode="normal" in="SourceGraphic" in2="effect1_dropShadow" result="shape"/>
</filter>
<linearGradient id="paint0_linear" x1="0.518313" y1="104.301" x2="254.791" y2="104.301" gradientUnits="userSpaceOnUse">
<stop offset="0.808204" stop-color="#C4C4C4"/>
<stop offset="0.899567" stop-color="#C4C4C4" stop-opacity="0"/>
</linearGradient>
<radialGradient id="paint1_radial" cx="0" cy="0" r="1" gradientUnits="userSpaceOnUse" gradientTransform="translate(120.08 115.07) scale(75.8626 245.704)">
<stop stop-color="white"/>
<stop offset="1" stop-color="#C4C4C4" stop-opacity="0"/>
</radialGradient>
<linearGradient id="paint2_linear" x1="93.0829" y1="76.6416" x2="93.0829" y2="173.311" gradientUnits="userSpaceOnUse">
<stop stop-color="white"/>
<stop offset="1" stop-color="white" stop-opacity="0"/>
</linearGradient>
</defs>
</svg>
