<svg width="970" height="445" viewBox="0 0 970 445" fill="none" xmlns="http://www.w3.org/2000/svg">
<g filter="url(#filter0_d)">
<path fill-rule="evenodd" clip-rule="evenodd" d="M996.779 2244.8C788.332 2264.57 546.117 2292.16 391.171 2151.33C237.643 2011.79 297.135 1762.83 245.445 1561.9C198.298 1378.64 84.4059 1215.44 101.93 1027.03C122.435 806.552 197.014 587.989 350.837 428.716C522.828 250.631 749.257 95.1817 996.779 100.469C1242.76 105.723 1460.36 271.263 1622.98 455.889C1764.45 616.498 1785.16 837.726 1830.42 1046.91C1870.62 1232.72 1926.73 1420.07 1870.92 1601.81C1814.58 1785.29 1678.9 1930.1 1524.29 2043.83C1368.91 2158.12 1188.8 2226.58 996.779 2244.8Z" fill="url(#paint0_linear)"/>
</g>
<defs>
<filter id="filter0_d" x="0.113281" y="0.337646" width="1994.27" height="2360.72" filterUnits="userSpaceOnUse" color-interpolation-filters="sRGB">
<feFlood flood-opacity="0" result="BackgroundImageFix"/>
<feColorMatrix in="SourceAlpha" type="matrix" values="0 0 0 0 0 0 0 0 0 0 0 0 0 0 0 0 0 0 127 0"/>
<feOffset/>
<feGaussianBlur stdDeviation="50"/>
<feColorMatrix type="matrix" values="0 0 0 0 0 0 0 0 0 0 0 0 0 0 0 0 0 0 0.36 0"/>
<feBlend mode="normal" in2="BackgroundImageFix" result="effect1_dropShadow"/>
<feBlend mode="normal" in="SourceGraphic" in2="effect1_dropShadow" result="shape"/>
</filter>
<linearGradient id="paint0_linear" x1="388.591" y1="1931.68" x2="1797.9" y2="1604.18" gradientUnits="userSpaceOnUse">
<stop stop-color="#341773"/>
<stop offset="1" stop-color="#B01531"/>
</linearGradient>
</defs>
</svg>
