<?xml version="1.0" standalone="no"?><!-- Generator: Gravit.io --><svg xmlns="http://www.w3.org/2000/svg" xmlns:xlink="http://www.w3.org/1999/xlink" style="isolation:isolate" viewBox="0 0 512 512" width="512" height="512"><g style="isolation:isolate"><path d=" M 95.68710485966776 137.88373777100858 L 458.48988660570365 137.23592828936353 C 477.62528159381736 137.38911093532286 491.1719899674771 153.71262316730574 487.7953225800452 172.54835595206745 L 458.1381631487918 345.7285075370943 C 454.6588468554801 365.1368062865335 435.9905475189121 380.79450234854994 416.27290033358076 380.8421967106307 L 54.17313420344466 380.5379519668376 C 35.051396982920025 380.5842446106658 21.471451713002466 364.41449008854073 24.821207907059872 345.5884075948255 L 53.86833236649997 172.6345795953468 C 57.31871575741911 153.2428858159764 75.99148082457381 137.72608040908915 95.68710485966776 137.88373777100858 Z  M 160.31282171307691 343.6244206155194 L 80.95731033935297 343.6244206155194 C 76.44886328745912 343.675673185472 72.73008679266823 339.8246140232824 73.07828798320182 335.29789072186475 L 73.1371781205562 334.6501171817133 L 100.29564897139193 180.60293453397847 C 100.29564897139193 176.51464354291633 105.27877532999275 173.4187690746673 108.85775738521096 173.4187690746673 L 184.55052505275276 173.4187690746673 C 189.05352696835783 173.36760635844882 192.78921393591358 177.2343899241127 192.4413182480761 181.75710574898775 L 192.3824281107217 182.40486131839234 L 189.94453456682223 196.21963932248093 C 189.2216972171715 200.33972056468127 185.5631227242534 203.40380478179208 181.3824261530032 203.40380478179208 L 131.98839083731292 203.40380478179208 C 130.06489195060965 203.40380478179208 128.45649213878332 204.7687728570903 128.11366420155122 206.6543354972403 L 122.84920580136267 236.5098200904842 C 121.72851408769341 240.6521131757636 123.82634718937226 242.74994627744246 127.76034134817172 242.35135511280396 L 169.07514221730338 242.35135511280396 C 173.58409245010841 242.32576476932132 177.30340806730416 246.1494365133455 176.95414660270774 250.68970975787124 L 176.89527443610018 251.33744735652903 L 174.48092257054498 265.04621592508096 C 173.7560904679964 269.17772656226373 170.11643917148785 272.2421701943111 165.91881415672597 272.2421701943111 L 119.86954815284841 272.2421701943111 C 118.06341621367687 272.2421701943111 116.33078462903063 273.75814645520256 115.97124389724877 275.5044717489315 L 110.08922078232618 309.0617145397204 Q 109.7947880663011 310.82831083587104 110.43885963260598 311.895629431462 C 111.0829311989109 312.962948027053 111.89262116797991 313.7105310950855 113.5488051956211 313.77263799612206 Q 115.20498922326229 313.8347448971586 165.5890509524376 313.74539434393125 L 160.31282171307691 343.6244206155194 Z  M 165.5863373696666 313.75538607916747 L 199.03660030459022 313.74539434393125 L 209.9895009348733 313.74539434393125 C 220.18117870028172 313.74539434393125 234.1903103313119 314.33224705233675 241.35247959650596 305.3599563421754 C 246.32602754704763 299.12942653402314 246.10592183990192 290.42353417483565 240.42943015644775 284.8159063932253 C 237.68806461086885 282.10782267077127 234.47845328594732 280.08661683356576 231.20044529859948 278.08959962159037 C 210.82629079015854 265.6772766706826 182.3619935918345 254.193430325375 184.54168344531354 225.4023350959892 C 184.96591886567515 219.79873276166825 186.12192309686085 214.40605308286405 188.20147994901592 209.16290798841317 C 190.603953150918 203.10558023818635 194.1665997972698 197.50023474142307 198.78928688674736 192.91021846967828 C 204.42432005726997 187.31499050337905 210.52612540589539 183.25870541241704 218.02310765523637 180.3408851037369 C 228.5692943433149 176.23631261604885 239.573195953095 174.29029638357045 250.89210678401795 174.29029638357045 L 432.43931229679583 174.29029638357045 C 436.4293931564446 174.2643825666449 439.63544627349427 177.67941749855396 439.32904504008195 181.6628851233701 L 439.29371455181865 182.11042860236725 L 436.4671676662764 198.1511172207757 C 435.831075111563 201.64950047647164 432.8454871165957 204.16932265515862 429.2830022069653 204.16932265515862 L 268.05165409991923 204.16932265515862 L 246.16939451769733 204.16932265515862 C 237.32246773740607 204.16932265515862 227.2704586163426 206.029816103484 220.55374822351368 212.2838875899805 C 215.86773222221527 216.64714897825337 213.40061824397392 223.52329583693768 218.46915956224686 229.53763756075261 C 226.55313828596795 239.13009874393805 240.68896368213345 243.81331130873133 251.03342873707098 250.1361748140843 C 254.33817719569842 252.15612269901186 257.61632894902084 254.29431809806573 260.6142808178057 256.75796372216934 C 277.3628730952511 270.52157901003943 282.7815923862087 288.9775360020913 274.9178092233674 309.49380317644574 C 272.36111107218994 316.1640771594719 268.4358686670955 322.19736005044325 263.34073064351765 327.2068494946403 C 256.8415741117849 333.5967798271543 249.62132339284366 336.9867455672387 240.98738590395433 339.41994874621616 C 229.87862498643457 342.5505966095768 218.29690995390328 343.6244206155194 206.78607154686048 343.6244206155194 L 160.31070116495124 343.6184543275726 L 165.5863373696666 313.75538607916747 Z  M 401.98317346158285 335.1212023390548 C 398.79293460174154 336.7781770795564 395.4652195286683 338.1019382323787 392.0549109031749 339.23150749498086 C 356.34135820052984 351.0605000038613 309.36952796675837 346.17587130862313 289.6188505487578 310.48309278931083 C 287.8373025912466 307.2635616121404 286.4201294964138 303.76350707698947 285.390765118123 300.2323990913203 C 284.33965613617056 296.6266406233288 283.52486247500246 292.98184969322756 283.0559338072803 289.25450115219985 C 282.5808232026495 285.47805653083884 282.4182598268461 281.73924265333505 282.3964073987037 277.9232623889531 C 282.2743860277435 256.6089143479804 288.76502442547996 231.96453300759356 303.07883209822705 215.8215009860013 C 303.07883209822705 215.8215009860013 307.6237058539407 210.51224151397133 307.6237058539407 210.51224151397133 C 307.6237058539407 210.51224151397133 313.85506231644695 204.16330245497136 313.85506231644695 204.16330245497136 C 313.85506231644695 204.16330245497136 381.40824976958277 204.16932265515862 381.40824976958277 204.16932265515862 C 381.40824976958277 204.16932265515862 372.5815580502194 204.5794150977668 372.5815580502194 204.5794150977668 C 364.2766649357453 205.35609280491337 354.154965258484 207.86574354089583 346.9863624659257 212.35041529473665 C 342.1312057954849 215.38783092355516 338.2223167700038 219.1135081851279 334.388797056718 223.3516212924926 C 320.5882339133701 238.60862361249173 314.2080077841431 262.0510674928012 316.78317986305933 282.2631977478436 C 319.76765367172345 305.68745523236345 340.0777963799642 314.81512101959714 361.66357458102254 314.41670956242695 C 370.6816547541009 314.25026450530873 383.89795297658645 314.6896492652461 386.00139295127553 303.03982510223784 L 389.5463384120021 282.9595282459235 Q 390.0924334666023 280.8697819803171 388.870997746217 279.4827278571676 Q 387.64956202583164 278.09567373401813 385.612721638886 278.27214646786615 L 365.4146445078628 278.27214646786615 C 360.9049934159316 278.3233990378188 357.1877084931274 274.45656155991446 357.53562215171166 269.9338277642926 L 357.5945302598129 269.28605422414114 L 360.0088641546213 255.5772497140955 C 360.0088641546213 251.47743947431684 364.9848201852378 248.393120196278 368.57095459769346 248.393120196278 L 418.74229659666923 248.393120196278 C 423.2550745985486 248.342119216781 426.9820277831461 252.18336635120266 426.6331077627394 256.7196860314263 L 426.57419965463816 257.3674236300841 L 416.3043850820229 315.61798210487166 C 416.3043850820229 323.1653363575707 408.13624935090763 331.847471389452 401.98317346158285 335.1212023390548 Z " fill-rule="evenodd" fill="rgb(255,25,25)"/><path d=" M 95.68710485966776 137.88373777100858 L 458.48988660570365 137.23592828936353 C 477.62528159381736 137.38911093532286 491.1719899674771 153.71262316730574 487.7953225800452 172.54835595206745 L 458.1381631487918 345.7285075370943 C 454.6588468554801 365.1368062865335 435.9905475189121 380.79450234854994 416.27290033358076 380.8421967106307 L 54.17313420344466 380.5379519668376 C 35.051396982920025 380.5842446106658 21.471451713002466 364.41449008854073 24.821207907059872 345.5884075948255 L 53.86833236649997 172.6345795953468 C 57.31871575741911 153.2428858159764 75.99148082457381 137.72608040908915 95.68710485966776 137.88373777100858 Z  M 160.31282171307691 343.6244206155194 L 80.95731033935297 343.6244206155194 C 76.44886328745912 343.675673185472 72.73008679266823 339.8246140232824 73.07828798320182 335.29789072186475 L 73.1371781205562 334.6501171817133 L 100.29564897139193 180.60293453397847 C 100.29564897139193 176.51464354291633 105.27877532999275 173.4187690746673 108.85775738521096 173.4187690746673 L 184.55052505275276 173.4187690746673 C 189.05352696835783 173.36760635844882 192.78921393591358 177.2343899241127 192.4413182480761 181.75710574898775 L 192.3824281107217 182.40486131839234 L 189.94453456682223 196.21963932248093 C 189.2216972171715 200.33972056468127 185.5631227242534 203.40380478179208 181.3824261530032 203.40380478179208 L 131.98839083731292 203.40380478179208 C 130.06489195060965 203.40380478179208 128.45649213878332 204.7687728570903 128.11366420155122 206.6543354972403 L 122.84920580136267 236.5098200904842 C 121.72851408769341 240.6521131757636 123.82634718937226 242.74994627744246 127.76034134817172 242.35135511280396 L 169.07514221730338 242.35135511280396 C 173.58409245010841 242.32576476932132 177.30340806730416 246.1494365133455 176.95414660270774 250.68970975787124 L 176.89527443610018 251.33744735652903 L 174.48092257054498 265.04621592508096 C 173.7560904679964 269.17772656226373 170.11643917148785 272.2421701943111 165.91881415672597 272.2421701943111 L 119.86954815284841 272.2421701943111 C 118.06341621367687 272.2421701943111 116.33078462903063 273.75814645520256 115.97124389724877 275.5044717489315 L 110.08922078232618 309.0617145397204 Q 109.7947880663011 310.82831083587104 110.43885963260598 311.895629431462 C 111.0829311989109 312.962948027053 111.89262116797991 313.7105310950855 113.5488051956211 313.77263799612206 Q 115.20498922326229 313.8347448971586 165.5890509524376 313.74539434393125 L 160.31282171307691 343.6244206155194 Z  M 165.5863373696666 313.75538607916747 L 199.03660030459022 313.74539434393125 L 209.9895009348733 313.74539434393125 C 220.18117870028172 313.74539434393125 234.1903103313119 314.33224705233675 241.35247959650596 305.3599563421754 C 246.32602754704763 299.12942653402314 246.10592183990192 290.42353417483565 240.42943015644775 284.8159063932253 C 237.68806461086885 282.10782267077127 234.47845328594732 280.08661683356576 231.20044529859948 278.08959962159037 C 210.82629079015854 265.6772766706826 182.3619935918345 254.193430325375 184.54168344531354 225.4023350959892 C 184.96591886567515 219.79873276166825 186.12192309686085 214.40605308286405 188.20147994901592 209.16290798841317 C 190.603953150918 203.10558023818635 194.1665997972698 197.50023474142307 198.78928688674736 192.91021846967828 C 204.42432005726997 187.31499050337905 210.52612540589539 183.25870541241704 218.02310765523637 180.3408851037369 C 228.5692943433149 176.23631261604885 239.573195953095 174.29029638357045 250.89210678401795 174.29029638357045 L 432.43931229679583 174.29029638357045 C 436.4293931564446 174.2643825666449 439.63544627349427 177.67941749855396 439.32904504008195 181.6628851233701 L 439.29371455181865 182.11042860236725 L 436.4671676662764 198.1511172207757 C 435.831075111563 201.64950047647164 432.8454871165957 204.16932265515862 429.2830022069653 204.16932265515862 L 268.05165409991923 204.16932265515862 L 246.16939451769733 204.16932265515862 C 237.32246773740607 204.16932265515862 227.2704586163426 206.029816103484 220.55374822351368 212.2838875899805 C 215.86773222221527 216.64714897825337 213.40061824397392 223.52329583693768 218.46915956224686 229.53763756075261 C 226.55313828596795 239.13009874393805 240.68896368213345 243.81331130873133 251.03342873707098 250.1361748140843 C 254.33817719569842 252.15612269901186 257.61632894902084 254.29431809806573 260.6142808178057 256.75796372216934 C 277.3628730952511 270.52157901003943 282.7815923862087 288.9775360020913 274.9178092233674 309.49380317644574 C 272.36111107218994 316.1640771594719 268.4358686670955 322.19736005044325 263.34073064351765 327.2068494946403 C 256.8415741117849 333.5967798271543 249.62132339284366 336.9867455672387 240.98738590395433 339.41994874621616 C 229.87862498643457 342.5505966095768 218.29690995390328 343.6244206155194 206.78607154686048 343.6244206155194 L 160.31070116495124 343.6184543275726 L 165.5863373696666 313.75538607916747 Z  M 401.98317346158285 335.1212023390548 C 398.79293460174154 336.7781770795564 395.4652195286683 338.1019382323787 392.0549109031749 339.23150749498086 C 356.34135820052984 351.0605000038613 309.36952796675837 346.17587130862313 289.6188505487578 310.48309278931083 C 287.8373025912466 307.2635616121404 286.4201294964138 303.76350707698947 285.390765118123 300.2323990913203 C 284.33965613617056 296.6266406233288 283.52486247500246 292.98184969322756 283.0559338072803 289.25450115219985 C 282.5808232026495 285.47805653083884 282.4182598268461 281.73924265333505 282.3964073987037 277.9232623889531 C 282.2743860277435 256.6089143479804 288.76502442547996 231.96453300759356 303.07883209822705 215.8215009860013 C 303.07883209822705 215.8215009860013 307.6237058539407 210.51224151397133 307.6237058539407 210.51224151397133 C 307.6237058539407 210.51224151397133 313.85506231644695 204.16330245497136 313.85506231644695 204.16330245497136 C 313.85506231644695 204.16330245497136 381.40824976958277 204.16932265515862 381.40824976958277 204.16932265515862 C 381.40824976958277 204.16932265515862 372.5815580502194 204.5794150977668 372.5815580502194 204.5794150977668 C 364.2766649357453 205.35609280491337 354.154965258484 207.86574354089583 346.9863624659257 212.35041529473665 C 342.1312057954849 215.38783092355516 338.2223167700038 219.1135081851279 334.388797056718 223.3516212924926 C 320.5882339133701 238.60862361249173 314.2080077841431 262.0510674928012 316.78317986305933 282.2631977478436 C 319.76765367172345 305.68745523236345 340.0777963799642 314.81512101959714 361.66357458102254 314.41670956242695 C 370.6816547541009 314.25026450530873 383.89795297658645 314.6896492652461 386.00139295127553 303.03982510223784 L 389.5463384120021 282.9595282459235 Q 390.0924334666023 280.8697819803171 388.870997746217 279.4827278571676 Q 387.64956202583164 278.09567373401813 385.612721638886 278.27214646786615 L 365.4146445078628 278.27214646786615 C 360.9049934159316 278.3233990378188 357.1877084931274 274.45656155991446 357.53562215171166 269.9338277642926 L 357.5945302598129 269.28605422414114 L 360.0088641546213 255.5772497140955 C 360.0088641546213 251.47743947431684 364.9848201852378 248.393120196278 368.57095459769346 248.393120196278 L 418.74229659666923 248.393120196278 C 423.2550745985486 248.342119216781 426.9820277831461 252.18336635120266 426.6331077627394 256.7196860314263 L 426.57419965463816 257.3674236300841 L 416.3043850820229 315.61798210487166 C 416.3043850820229 323.1653363575707 408.13624935090763 331.847471389452 401.98317346158285 335.1212023390548 Z " fill-rule="evenodd" fill="rgb(69,175,245)"/></g></svg>