<svg width="251" height="238" viewBox="0 0 251 238" fill="none" xmlns="http://www.w3.org/2000/svg">
<mask id="mask0" mask-type="alpha" maskUnits="userSpaceOnUse" x="0" y="0" width="251" height="238">
<rect x="0.183838" y="0.0546875" width="250.596" height="237.548" fill="url(#paint0_linear)"/>
</mask>
<g mask="url(#mask0)">
<g filter="url(#filter0_d)">
<path d="M44.6596 169.985V164.904V23.4712V19.8832C44.6596 10.0654 52.6186 2.10645 62.4364 2.10645H308.806C318.867 2.10645 327.023 10.2623 327.023 20.3229V23.4712V164.904V169.545C327.023 179.606 318.867 187.762 308.806 187.762H62.4364C52.6186 187.762 44.6596 179.803 44.6596 169.985Z" stroke="white" stroke-width="4"/>
<path d="M44.6596 169.985V164.904V23.4712V19.8832C44.6596 10.0654 52.6186 2.10645 62.4364 2.10645H308.806C318.867 2.10645 327.023 10.2623 327.023 20.3229V23.4712V164.904V169.545C327.023 179.606 318.867 187.762 308.806 187.762H62.4364C52.6186 187.762 44.6596 179.803 44.6596 169.985Z" stroke="white" stroke-width="4"/>
<path d="M44.6596 169.985V164.904V23.4712V19.8832C44.6596 10.0654 52.6186 2.10645 62.4364 2.10645H308.806C318.867 2.10645 327.023 10.2623 327.023 20.3229V23.4712V164.904V169.545C327.023 179.606 318.867 187.762 308.806 187.762H62.4364C52.6186 187.762 44.6596 179.803 44.6596 169.985Z" stroke="white" stroke-width="4"/>
</g>
<g filter="url(#filter1_d)">
<path d="M333.936 201.613L361.948 218.452C369.761 223.149 366.431 235.151 357.315 235.151H355.219H292.245H187.556H82.867H21.6122H16.3373C7.25793 235.151 3.81731 223.285 11.4884 218.428L37.6046 201.893C41.2852 199.562 45.5519 198.325 49.9081 198.325H185.841H322.086C326.261 198.325 330.358 199.462 333.936 201.613Z" stroke="white" stroke-width="4"/>
<path d="M333.936 201.613L361.948 218.452C369.761 223.149 366.431 235.151 357.315 235.151H355.219H292.245H187.556H82.867H21.6122H16.3373C7.25793 235.151 3.81731 223.285 11.4884 218.428L37.6046 201.893C41.2852 199.562 45.5519 198.325 49.9081 198.325H185.841H322.086C326.261 198.325 330.358 199.462 333.936 201.613Z" stroke="white" stroke-width="4"/>
<path d="M333.936 201.613L361.948 218.452C369.761 223.149 366.431 235.151 357.315 235.151H355.219H292.245H187.556H82.867H21.6122H16.3373C7.25793 235.151 3.81731 223.285 11.4884 218.428L37.6046 201.893C41.2852 199.562 45.5519 198.325 49.9081 198.325H185.841H322.086C326.261 198.325 330.358 199.462 333.936 201.613Z" stroke="white" stroke-width="4"/>
</g>
<path d="M150.261 213.521H224.017C225.862 213.521 227.639 214.216 228.995 215.467L236.699 222.576C238.869 224.578 237.452 228.202 234.5 228.202H217.095H187.557H158.018H139.91C137.091 228.202 135.701 224.776 137.722 222.812L145.145 215.598C146.515 214.266 148.351 213.521 150.261 213.521Z" stroke="white" stroke-width="3"/>
<path d="M150.261 213.521H224.017C225.862 213.521 227.639 214.216 228.995 215.467L236.699 222.576C238.869 224.578 237.452 228.202 234.5 228.202H217.095H187.557H158.018H139.91C137.091 228.202 135.701 224.776 137.722 222.812L145.145 215.598C146.515 214.266 148.351 213.521 150.261 213.521Z" stroke="white" stroke-width="3"/>
<path d="M150.261 213.521H224.017C225.862 213.521 227.639 214.216 228.995 215.467L236.699 222.576C238.869 224.578 237.452 228.202 234.5 228.202H217.095H187.557H158.018H139.91C137.091 228.202 135.701 224.776 137.722 222.812L145.145 215.598C146.515 214.266 148.351 213.521 150.261 213.521Z" stroke="white" stroke-width="3"/>
<path d="M65.1424 33.0361H303.626V156.505C303.626 160.371 300.492 163.505 296.626 163.505H72.1424C68.2764 163.505 65.1424 160.371 65.1424 156.505V33.0361Z" stroke="white" stroke-width="2"/>
<path d="M65.1424 33.0361H303.626V156.505C303.626 160.371 300.492 163.505 296.626 163.505H72.1424C68.2764 163.505 65.1424 160.371 65.1424 156.505V33.0361Z" stroke="white" stroke-width="2"/>
<path d="M65.1424 33.0361H303.626V156.505C303.626 160.371 300.492 163.505 296.626 163.505H72.1424C68.2764 163.505 65.1424 160.371 65.1424 156.505V33.0361Z" stroke="white" stroke-width="2"/>
<mask id="path-6-inside-1" fill="white">
<path fill-rule="evenodd" clip-rule="evenodd" d="M68.142 19.6055C65.9329 19.6055 64.142 21.3963 64.142 23.6055V33.7716H304.626V23.6055C304.626 21.3963 302.835 19.6055 300.626 19.6055H68.142ZM69.8618 23.7256C67.6527 23.7256 65.8618 25.5164 65.8618 27.7256V32.0361H115.806V27.7256C115.806 25.5164 114.015 23.7256 111.806 23.7256H69.8618Z"/>
</mask>
<path fill-rule="evenodd" clip-rule="evenodd" d="M68.142 19.6055C65.9329 19.6055 64.142 21.3963 64.142 23.6055V33.7716H304.626V23.6055C304.626 21.3963 302.835 19.6055 300.626 19.6055H68.142ZM69.8618 23.7256C67.6527 23.7256 65.8618 25.5164 65.8618 27.7256V32.0361H115.806V27.7256C115.806 25.5164 114.015 23.7256 111.806 23.7256H69.8618Z" fill="white"/>
<path d="M64.142 33.7716H62.142V35.7716H64.142V33.7716ZM304.626 33.7716V35.7716H306.626V33.7716H304.626ZM65.8618 32.0361H63.8618V34.0361H65.8618V32.0361ZM115.806 32.0361V34.0361H117.806V32.0361H115.806ZM66.142 23.6055C66.142 22.5009 67.0375 21.6055 68.142 21.6055V17.6055C64.8283 17.6055 62.142 20.2918 62.142 23.6055H66.142ZM66.142 33.7716V23.6055H62.142V33.7716H66.142ZM304.626 31.7716H64.142V35.7716H304.626V31.7716ZM302.626 23.6055V33.7716H306.626V23.6055H302.626ZM300.626 21.6055C301.731 21.6055 302.626 22.5009 302.626 23.6055H306.626C306.626 20.2918 303.94 17.6055 300.626 17.6055V21.6055ZM68.142 21.6055H300.626V17.6055H68.142V21.6055ZM67.8618 27.7256C67.8618 26.621 68.7572 25.7256 69.8618 25.7256V21.7256C66.5481 21.7256 63.8618 24.4119 63.8618 27.7256H67.8618ZM67.8618 32.0361V27.7256H63.8618V32.0361H67.8618ZM115.806 30.0361H65.8618V34.0361H115.806V30.0361ZM113.806 27.7256V32.0361H117.806V27.7256H113.806ZM111.806 25.7256C112.91 25.7256 113.806 26.621 113.806 27.7256H117.806C117.806 24.4119 115.119 21.7256 111.806 21.7256V25.7256ZM69.8618 25.7256H111.806V21.7256H69.8618V25.7256Z" fill="white" mask="url(#path-6-inside-1)"/>
<path d="M64.142 33.7716H62.142V35.7716H64.142V33.7716ZM304.626 33.7716V35.7716H306.626V33.7716H304.626ZM65.8618 32.0361H63.8618V34.0361H65.8618V32.0361ZM115.806 32.0361V34.0361H117.806V32.0361H115.806ZM66.142 23.6055C66.142 22.5009 67.0375 21.6055 68.142 21.6055V17.6055C64.8283 17.6055 62.142 20.2918 62.142 23.6055H66.142ZM66.142 33.7716V23.6055H62.142V33.7716H66.142ZM304.626 31.7716H64.142V35.7716H304.626V31.7716ZM302.626 23.6055V33.7716H306.626V23.6055H302.626ZM300.626 21.6055C301.731 21.6055 302.626 22.5009 302.626 23.6055H306.626C306.626 20.2918 303.94 17.6055 300.626 17.6055V21.6055ZM68.142 21.6055H300.626V17.6055H68.142V21.6055ZM67.8618 27.7256C67.8618 26.621 68.7572 25.7256 69.8618 25.7256V21.7256C66.5481 21.7256 63.8618 24.4119 63.8618 27.7256H67.8618ZM67.8618 32.0361V27.7256H63.8618V32.0361H67.8618ZM115.806 30.0361H65.8618V34.0361H115.806V30.0361ZM113.806 27.7256V32.0361H117.806V27.7256H113.806ZM111.806 25.7256C112.91 25.7256 113.806 26.621 113.806 27.7256H117.806C117.806 24.4119 115.119 21.7256 111.806 21.7256V25.7256ZM69.8618 25.7256H111.806V21.7256H69.8618V25.7256Z" fill="white" mask="url(#path-6-inside-1)"/>
<path d="M64.142 33.7716H62.142V35.7716H64.142V33.7716ZM304.626 33.7716V35.7716H306.626V33.7716H304.626ZM65.8618 32.0361H63.8618V34.0361H65.8618V32.0361ZM115.806 32.0361V34.0361H117.806V32.0361H115.806ZM66.142 23.6055C66.142 22.5009 67.0375 21.6055 68.142 21.6055V17.6055C64.8283 17.6055 62.142 20.2918 62.142 23.6055H66.142ZM66.142 33.7716V23.6055H62.142V33.7716H66.142ZM304.626 31.7716H64.142V35.7716H304.626V31.7716ZM302.626 23.6055V33.7716H306.626V23.6055H302.626ZM300.626 21.6055C301.731 21.6055 302.626 22.5009 302.626 23.6055H306.626C306.626 20.2918 303.94 17.6055 300.626 17.6055V21.6055ZM68.142 21.6055H300.626V17.6055H68.142V21.6055ZM67.8618 27.7256C67.8618 26.621 68.7572 25.7256 69.8618 25.7256V21.7256C66.5481 21.7256 63.8618 24.4119 63.8618 27.7256H67.8618ZM67.8618 32.0361V27.7256H63.8618V32.0361H67.8618ZM115.806 30.0361H65.8618V34.0361H115.806V30.0361ZM113.806 27.7256V32.0361H117.806V27.7256H113.806ZM111.806 25.7256C112.91 25.7256 113.806 26.621 113.806 27.7256H117.806C117.806 24.4119 115.119 21.7256 111.806 21.7256V25.7256ZM69.8618 25.7256H111.806V21.7256H69.8618V25.7256Z" fill="white" mask="url(#path-6-inside-1)"/>
<path d="M153.672 74.9573C154.362 73.3342 156.663 73.3342 157.353 74.9573L180.656 129.754C181.217 131.073 180.249 132.537 178.816 132.537H132.21C130.776 132.537 129.808 131.073 130.369 129.754L153.672 74.9573Z" fill="white"/>
<mask id="mask1" mask-type="alpha" maskUnits="userSpaceOnUse" x="75" y="46" width="103" height="97">
<path d="M122.444 141.437L176.987 111.084" stroke="white" stroke-width="2"/>
<path d="M76.4625 77.6196L131.006 47.2662" stroke="white" stroke-width="2"/>
<path d="M79.1708 81.0932L133.714 50.7398" stroke="white" stroke-width="2"/>
<path d="M81.8773 84.5654L136.42 54.212" stroke="white" stroke-width="2"/>
<path d="M84.5816 88.0385L139.125 57.6851" stroke="white" stroke-width="2"/>
<path d="M87.2871 91.5121L141.83 61.1587" stroke="white" stroke-width="2"/>
<path d="M89.9953 94.9843L144.538 64.6309" stroke="white" stroke-width="2"/>
<path d="M92.7027 98.4579L147.246 68.1045" stroke="white" stroke-width="2"/>
<path d="M95.4092 101.931L149.952 71.5777" stroke="white" stroke-width="2"/>
<path d="M98.1193 105.404L152.662 75.0508" stroke="white" stroke-width="2"/>
<path d="M99.2579 109.474L153.801 79.1202" stroke="white" stroke-width="2"/>
<path d="M101.961 112.946L156.504 82.5928" stroke="white" stroke-width="2"/>
<path d="M104.667 116.42L159.21 86.0669" stroke="white" stroke-width="2"/>
<path d="M107.376 119.893L161.919 89.5396" stroke="white" stroke-width="2"/>
<path d="M110.082 123.366L164.625 93.0127" stroke="white" stroke-width="2"/>
<path d="M112.791 126.839L167.335 96.4859" stroke="white" stroke-width="2"/>
<path d="M115.498 130.312L170.041 99.9585" stroke="white" stroke-width="2"/>
<path d="M118.205 133.786L172.748 103.432" stroke="white" stroke-width="2"/>
<path d="M120.916 137.26L175.46 106.906" stroke="white" stroke-width="2"/>
</mask>
<g mask="url(#mask1)">
<rect x="97.8099" y="64.6875" width="60.0676" height="60.4938" rx="30.0338" fill="white"/>
</g>
<rect x="129.343" y="49.8179" width="57.0676" height="57.4938" rx="3.5" stroke="white" stroke-width="3"/>
<rect x="197.918" y="76.3354" width="58.5433" height="9.90673" rx="2" fill="white"/>
<rect x="197.918" y="90.4263" width="38.0281" height="5.31473" rx="2" fill="white"/>
<rect x="197.918" y="99.9253" width="22.2663" height="4.71447" rx="2" fill="white"/>
</g>
<defs>
<filter id="filter0_d" x="22.6596" y="-19.8936" width="326.363" height="229.655" filterUnits="userSpaceOnUse" color-interpolation-filters="sRGB">
<feFlood flood-opacity="0" result="BackgroundImageFix"/>
<feColorMatrix in="SourceAlpha" type="matrix" values="0 0 0 0 0 0 0 0 0 0 0 0 0 0 0 0 0 0 127 0"/>
<feOffset/>
<feGaussianBlur stdDeviation="10"/>
<feColorMatrix type="matrix" values="0 0 0 0 1 0 0 0 0 1 0 0 0 0 1 0 0 0 0.35 0"/>
<feBlend mode="normal" in2="BackgroundImageFix" result="effect1_dropShadow"/>
<feBlend mode="normal" in="SourceGraphic" in2="effect1_dropShadow" result="shape"/>
</filter>
<filter id="filter1_d" x="-14.7469" y="176.325" width="403.073" height="80.8255" filterUnits="userSpaceOnUse" color-interpolation-filters="sRGB">
<feFlood flood-opacity="0" result="BackgroundImageFix"/>
<feColorMatrix in="SourceAlpha" type="matrix" values="0 0 0 0 0 0 0 0 0 0 0 0 0 0 0 0 0 0 127 0"/>
<feOffset/>
<feGaussianBlur stdDeviation="10"/>
<feColorMatrix type="matrix" values="0 0 0 0 1 0 0 0 0 1 0 0 0 0 1 0 0 0 0.35 0"/>
<feBlend mode="normal" in2="BackgroundImageFix" result="effect1_dropShadow"/>
<feBlend mode="normal" in="SourceGraphic" in2="effect1_dropShadow" result="shape"/>
</filter>
<linearGradient id="paint0_linear" x1="0.183841" y1="98.3346" x2="275.034" y2="98.3346" gradientUnits="userSpaceOnUse">
<stop offset="0.817708" stop-color="#C4C4C4"/>
<stop offset="0.916667" stop-color="#C4C4C4" stop-opacity="0"/>
</linearGradient>
</defs>
</svg>
